<?xml version="1.0" encoding="UTF-8"?>
<!DOCTYPE svg PUBLIC "-//W3C//DTD SVG 1.1//EN" "http://www.w3.org/Graphics/SVG/1.1/DTD/svg11.dtd">
<!-- Creator: CorelDRAW X7 -->
<svg xmlns="http://www.w3.org/2000/svg" xml:space="preserve" width="20px" height="12px" version="1.1" style="shape-rendering:geometricPrecision; text-rendering:geometricPrecision; image-rendering:optimizeQuality; fill-rule:evenodd; clip-rule:evenodd"
viewBox="0 0 40 40"
 xmlns:xlink="http://www.w3.org/1999/xlink">
 <defs>
  <style type="text/css">
   <![CDATA[
    .fil0 {fill:white;fill-rule:nonzero}
   ]]>
  </style>
 </defs>
 <g id="Layer_x0020_1">
  <metadata id="CorelCorpID_0Corel-Layer"/>
  <g id="_489048793440">
   <path class="fil0" d="M28 24l0 1c1,0 1,0 2,0 1,0 1,0 2,0l7 -8c1,0 1,-1 1,-2 0,0 0,-1 -1,-1l0 -1c-1,0 -1,0 -2,0l-9 10c-1,0 -1,1 0,1z"/>
   <path class="fil0" d="M16 12c0,1 0,1 1,1 0,0 0,0 0,-1l10 -9c0,-1 0,-1 0,-2l-1 0c-1,-1 -2,-1 -3,0l-8 7c0,1 0,1 0,2 0,1 0,1 0,2l1 0z"/>
   <path class="fil0" d="M25 22c0,0 0,0 1,0 0,0 0,0 0,0l10 -10c0,-1 0,-1 0,-2l-6 -6c-1,0 -1,0 -2,0l-10 10c0,0 0,1 0,1l2 1c-7,6 -16,15 -19,18 -1,0 -1,1 -1,2 0,2 2,4 4,4 1,0 2,0 2,-1 3,-3 12,-12 18,-19l1 2z"/>
  </g>
 </g>
</svg>
