<?xml version="1.0" encoding="UTF-8"?>
<!DOCTYPE svg PUBLIC "-//W3C//DTD SVG 1.1//EN" "http://www.w3.org/Graphics/SVG/1.1/DTD/svg11.dtd">
<!-- Creator: CorelDRAW X7 -->
<svg xmlns="http://www.w3.org/2000/svg" xml:space="preserve" width="20px" height="12px" version="1.1" style="shape-rendering:geometricPrecision; text-rendering:geometricPrecision; image-rendering:optimizeQuality; fill-rule:evenodd; clip-rule:evenodd"
viewBox="0 0 40 40"
 xmlns:xlink="http://www.w3.org/1999/xlink">
 <defs>
  <style type="text/css">
   <![CDATA[
    .fil0 {fill:white;fill-rule:nonzero}
   ]]>
  </style>
 </defs>
 <g id="Layer_x0020_1">
  <metadata id="CorelCorpID_0Corel-Layer"/>
  <path class="fil0" d="M37 18l-8 8c-4,4 -10,4 -15,0 0,-1 -1,-2 -1,-3l3 -3c0,0 1,0 1,0 0,0 0,1 1,2 2,2 6,2 8,0l7 -8c2,-2 2,-5 0,-7 -2,-2 -5,-2 -7,0l-3 3c-2,-1 -5,-2 -7,-1l6 -6c4,-4 11,-4 15,0 4,4 4,11 0,15zm-20 12l-3 3c-2,2 -5,2 -7,0 -2,-2 -2,-5 0,-7l7 -8c2,-2 6,-2 8,0 1,1 1,2 1,2 0,0 1,0 1,0l3 -3c0,-1 -1,-2 -1,-3 -5,-4 -11,-4 -15,0l-8 8c-2,2 -3,5 -3,7l0 0c0,3 1,6 3,8 4,4 11,4 15,0l6 -6c-2,1 -5,0 -7,-1z"/>
 </g>
</svg>
