<?xml version="1.0" encoding="UTF-8"?>
<!DOCTYPE svg PUBLIC "-//W3C//DTD SVG 1.1//EN" "http://www.w3.org/Graphics/SVG/1.1/DTD/svg11.dtd">
<!-- Creator: CorelDRAW X7 -->
<svg xmlns="http://www.w3.org/2000/svg" xml:space="preserve" width="20px" height="14px" version="1.1" style="shape-rendering:geometricPrecision; text-rendering:geometricPrecision; image-rendering:optimizeQuality; fill-rule:evenodd; clip-rule:evenodd"
viewBox="0 0 40 40"
 xmlns:xlink="http://www.w3.org/1999/xlink">
 <defs>
  <style type="text/css">
   <![CDATA[
    .fil0 {fill:white;fill-rule:nonzero}
   ]]>
  </style>
 </defs>
 <g id="Layer_x0020_1">
  <metadata id="CorelCorpID_0Corel-Layer"/>
  <g id="_489048794624">
   <path class="fil0" d="M12 23c1,0 2,0 3,0l0 -12c-1,0 -2,0 -3,0 -7,0 -12,3 -12,5l0 2c0,2 5,5 12,5z"/>
   <path class="fil0" d="M12 29c1,0 2,0 3,0l0 -4c-1,0 -2,0 -3,0 -6,0 -11,-1 -12,-4 0,1 0,1 0,1l0 1c0,3 5,6 12,6z"/>
   <path class="fil0" d="M15 31l0 0c-1,0 -2,0 -3,0 -6,0 -11,-1 -12,-4 0,0 0,1 0,1l0 1c0,3 5,6 12,6 1,0 2,0 3,-1 0,0 0,-1 0,-2l0 -1z"/>
   <path class="fil0" d="M28 2c-6,0 -11,3 -11,6l0 1c0,3 5,5 11,5 7,0 12,-2 12,-5l0 -1c0,-3 -5,-6 -12,-6z"/>
   <path class="fil0" d="M28 16c-5,0 -10,-1 -11,-4 0,1 0,1 0,1l0 2c0,2 5,5 11,5 7,0 12,-3 12,-5l0 -2c0,0 0,0 0,-1 -1,3 -6,4 -12,4z"/>
   <path class="fil0" d="M28 22c-5,0 -10,-1 -11,-4 0,1 0,1 0,1l0 1c0,3 5,6 11,6 7,0 12,-3 12,-6l0 -1c0,0 0,0 0,-1 -1,3 -6,4 -12,4z"/>
   <path class="fil0" d="M28 29c-5,0 -10,-2 -11,-5 0,1 0,1 0,1l0 2c0,3 5,5 11,5 7,0 12,-2 12,-5l0 -2c0,0 0,0 0,-1 -1,3 -6,5 -12,5z"/>
   <path class="fil0" d="M28 34c-5,0 -10,-1 -11,-4 0,1 0,1 0,1l0 1c0,3 5,6 11,6 7,0 12,-3 12,-6l0 -1c0,0 0,0 0,-1 -1,3 -6,4 -12,4z"/>
  </g>
 </g>
</svg>
