<?xml version="1.0" encoding="UTF-8"?>
<!DOCTYPE svg PUBLIC "-//W3C//DTD SVG 1.1//EN" "http://www.w3.org/Graphics/SVG/1.1/DTD/svg11.dtd">
<!-- Creator: CorelDRAW X7 -->
<svg xmlns="http://www.w3.org/2000/svg" xml:space="preserve" width="20px" height="12px" version="1.1" style="shape-rendering:geometricPrecision; text-rendering:geometricPrecision; image-rendering:optimizeQuality; fill-rule:evenodd; clip-rule:evenodd"
viewBox="0 0 40 40"
 xmlns:xlink="http://www.w3.org/1999/xlink">
 <defs>
  <style type="text/css">
   <![CDATA[
    .fil0 {fill:white;fill-rule:nonzero}
   ]]>
  </style>
 </defs>
 <g id="Layer_x0020_1">
  <metadata id="CorelCorpID_0Corel-Layer"/>
  <path class="fil0" d="M40 11c0,-3 -2,-5 -5,-5 -3,0 -6,2 -6,5 0,3 2,5 5,6l0 1c-2,1 -2,2 -2,3l0 4c0,1 0,2 2,3l0 0 -4 0c-2,0 -3,1 -3,2l-2 0c0,0 0,0 0,-1l-2 -1c2,-3 3,-6 3,-9 0,-7 -6,-13 -13,-13 -7,0 -13,6 -13,13 0,7 6,13 13,13 2,0 4,0 6,-1l2 2c1,1 1,1 2,1 1,0 1,0 2,-1 0,0 0,0 0,-1l2 0c0,1 1,2 3,2l4 0c2,0 3,-1 3,-3 0,-1 -1,-2 -1,-2l0 -2c1,0 1,-1 1,-2l0 -4c0,-1 0,-2 -1,-3l0 -1c2,-1 4,-3 4,-6zm-30 1c-2,1 -3,3 -4,5 0,0 0,1 0,1 0,1 0,1 -1,1 -1,0 -1,0 -1,-1 0,0 0,-1 0,-1 1,-3 3,-6 5,-7 1,0 2,0 2,1 0,0 0,1 -1,1zm12 19l-1 -1c0,-1 0,-1 0,-1l2 1c-1,0 -1,1 -1,1zm8 1c0,0 0,0 0,-1 0,0 0,0 0,-1l4 0 0 1c0,1 0,1 0,1l-4 0zm5 -8c0,0 0,0 0,0l0 0c-1,0 -1,0 -1,1l0 -4c0,1 0,1 1,1l0 0c0,0 0,0 0,-1l0 3zm1 -10c0,0 -1,0 -1,0l0 0c-1,0 -1,0 -1,0 -2,0 -3,-1 -3,-3 0,-2 2,-3 4,-3 1,0 3,1 3,3 0,2 -1,3 -2,3z"/>
 </g>
</svg>
