<?xml version="1.0" encoding="UTF-8"?>
<!DOCTYPE svg PUBLIC "-//W3C//DTD SVG 1.1//EN" "http://www.w3.org/Graphics/SVG/1.1/DTD/svg11.dtd">
<!-- Creator: CorelDRAW X7 -->
<svg xmlns="http://www.w3.org/2000/svg" xml:space="preserve" width="20px" height="12px" version="1.1" style="shape-rendering:geometricPrecision; text-rendering:geometricPrecision; image-rendering:optimizeQuality; fill-rule:evenodd; clip-rule:evenodd"
viewBox="0 0 40 40"
 xmlns:xlink="http://www.w3.org/1999/xlink">
 <defs>
  <style type="text/css">
   <![CDATA[
    .fil0 {fill:white;fill-rule:nonzero}
   ]]>
  </style>
 </defs>
 <g id="Layer_x0020_1">
  <metadata id="CorelCorpID_0Corel-Layer"/>
  <g id="_489111956576">
   <path class="fil0" d="M6 5l0 0c0,0 -1,0 -1,0 0,0 0,1 0,1l0 22c0,0 0,1 1,1 3,0 9,1 13,5l0 -23c0,0 0,0 0,0 -3,-5 -10,-6 -13,-6z"/>
   <path class="fil0" d="M35 28l0 -22c0,0 0,-1 0,-1 0,0 -1,0 -1,0l0 0c-3,0 -10,1 -13,6 0,0 0,0 0,0l0 23c4,-4 10,-5 13,-5 1,0 1,-1 1,-1z"/>
   <path class="fil0" d="M39 10l-1 0 0 18c0,2 -2,3 -4,3 -3,0 -8,1 -11,4 6,-1 12,-1 15,0 1,0 1,0 1,0 1,0 1,-1 1,-1l0 -23c0,-1 -1,-1 -1,-1z"/>
   <path class="fil0" d="M2 28l0 -18 -1 0c0,0 -1,0 -1,1l0 23c0,0 0,1 1,1 0,0 0,0 1,0 3,-1 9,-1 15,0 -3,-3 -8,-4 -11,-4 -2,0 -4,-1 -4,-3z"/>
  </g>
 </g>
</svg>
