<?xml version="1.0" encoding="UTF-8"?>
<!DOCTYPE svg PUBLIC "-//W3C//DTD SVG 1.1//EN" "http://www.w3.org/Graphics/SVG/1.1/DTD/svg11.dtd">
<!-- Creator: CorelDRAW X7 -->
<svg xmlns="http://www.w3.org/2000/svg" xml:space="preserve" width="20px" height="12px" version="1.1" style="shape-rendering:geometricPrecision; text-rendering:geometricPrecision; image-rendering:optimizeQuality; fill-rule:evenodd; clip-rule:evenodd"
viewBox="0 0 40 40"
 xmlns:xlink="http://www.w3.org/1999/xlink">
 <defs>
  <style type="text/css">
   <![CDATA[
    .fil0 {fill:white;fill-rule:nonzero}
   ]]>
  </style>
 </defs>
 <g id="Layer_x0020_1">
  <metadata id="CorelCorpID_0Corel-Layer"/>
  <g id="_489111928192">
   <polygon class="fil0" points="25,1 25,10 35,10 "/>
   <path class="fil0" d="M29 22l-18 0c-1,0 -1,-1 -1,-2 0,0 0,-1 1,-1l18 0c1,0 1,1 1,1 0,1 0,2 -1,2zm0 5l-18 0c-1,0 -1,-1 -1,-1 0,-1 0,-2 1,-2l18 0c1,0 1,1 1,2 0,0 0,1 -1,1zm-8 5l-10 0c-1,0 -1,0 -1,-1 0,-1 0,-1 1,-1l10 0c1,0 2,0 2,1 0,1 -1,1 -2,1zm3 -19c-1,0 -1,-1 -1,-1l0 -12 -17 0c-1,0 -2,1 -2,1l0 38c0,0 1,1 2,1l28 0c1,0 2,-1 2,-1l0 -26 -12 0z"/>
  </g>
 </g>
</svg>
